<svg id="evvlnh7nxy31" xmlns="http://www.w3.org/2000/svg" xmlns:xlink="http://www.w3.org/1999/xlink" viewBox="0 0 512 512" shape-rendering="geometricPrecision" text-rendering="geometricPrecision"><style><![CDATA[#evvlnh7nxy33_tr {animation: evvlnh7nxy33_tr__tr 2000ms linear 1 normal forwards}@keyframes evvlnh7nxy33_tr__tr { 0% {transform: translate(256px,256px) rotate(720deg)} 50% {transform: translate(256px,256px) rotate(720deg)} 100% {transform: translate(256px,256px) rotate(1080.178126deg)} }]]></style><g id="evvlnh7nxy32"><g id="evvlnh7nxy33_tr" transform="translate(256,256) rotate(720)"><path id="evvlnh7nxy33" d="M480.600000,235.600000C469.300000,235.600000,460.200000,244.700000,460.200000,256C460.200000,368.600000,368.600000,460.200000,256,460.200000C143.400000,460.200000,51.800000,368.600000,51.800000,256C51.800000,143.400000,143.400000,51.800000,256,51.800000C317.500000,51.800000,374.500000,78.900000,413.100000,125.500000L342.600000,125.500000C331.300000,125.500000,322.200000,134.600000,322.200000,145.900000C322.200000,157.200000,331.300000,166.300000,342.600000,166.300000L457.200000,166.300000C468.500000,166.300000,477.600000,157.200000,477.600000,145.900000L477.600000,31.400000C477.600000,20.100000,468.500000,11,457.200000,11C445.900000,11,436.800000,20.100000,436.800000,31.400000L436.800000,90.400000C390.700000,40.100000,325.800000,11,256,11C120.900000,11,11,120.900000,11,256C11,391.100000,120.900000,501,256,501C391.100000,501,501,391.100000,501,256C501,244.700000,491.900000,235.600000,480.600000,235.600000Z" transform="scale(1.005746,1) translate(-256,-256)" fill="rgb(0,0,0)" stroke="none" stroke-width="1"/></g></g></svg>